<svg xmlns="http://www.w3.org/2000/svg" xmlns:xlink="http://www.w3.org/1999/xlink" preserveAspectRatio="xMidYMid" width="233.343" height="158.53" viewBox="0 0 233.343 158.53">
  <defs>
    <style>
      .cls-1 {
        fill: #adadad;
        fill-rule: evenodd;
      }
    </style>
  </defs>
  <path d="M223.319,146.031 C223.355,147.490 223.781,148.668 224.597,149.565 C225.413,150.463 226.450,150.912 227.708,150.912 C228.601,150.912 229.357,150.730 229.977,150.365 C230.597,150.001 231.139,149.518 231.604,148.916 L233.149,150.119 C231.909,152.024 230.050,152.977 227.571,152.977 C225.566,152.977 223.934,152.318 222.676,151.001 C221.418,149.684 220.790,147.923 220.790,145.717 L220.790,145.252 C220.790,143.785 221.070,142.474 221.630,141.321 C222.191,140.168 222.975,139.266 223.982,138.614 C224.989,137.963 226.081,137.637 227.256,137.637 C229.179,137.637 230.674,138.270 231.741,139.537 C232.807,140.804 233.340,142.618 233.340,144.979 L233.340,146.031 L223.319,146.031 ZM230.811,143.762 C230.738,142.477 230.392,141.481 229.772,140.774 C229.152,140.068 228.314,139.715 227.256,139.715 C226.235,139.715 225.379,140.086 224.686,140.829 C223.993,141.572 223.565,142.613 223.401,143.953 L230.811,143.953 L230.811,143.762 ZM214.856,131.703 L217.385,131.703 L217.385,152.703 L214.856,152.703 L214.856,131.703 ZM205.709,152.977 C203.841,152.977 202.396,152.316 201.375,150.994 L201.252,152.703 L198.928,152.703 L198.928,131.703 L201.458,131.703 L201.458,139.537 C202.478,138.270 203.886,137.637 205.682,137.637 C207.478,137.637 208.888,138.316 209.914,139.674 C210.939,141.032 211.452,142.891 211.452,145.252 L211.452,145.471 C211.452,147.731 210.932,149.547 209.893,150.919 C208.854,152.291 207.459,152.977 205.709,152.977 ZM207.924,141.191 C207.259,140.253 206.302,139.783 205.053,139.783 C203.385,139.783 202.187,140.558 201.458,142.107 L201.458,148.506 C202.232,150.055 203.440,150.830 205.081,150.830 C206.293,150.830 207.236,150.361 207.911,149.422 C208.585,148.483 208.922,147.070 208.922,145.184 C208.922,143.461 208.590,142.130 207.924,141.191 ZM192.475,151.145 C191.299,152.366 189.896,152.977 188.264,152.977 C186.806,152.977 185.609,152.564 184.675,151.739 C183.741,150.914 183.274,149.869 183.274,148.602 C183.274,147.061 183.859,145.865 185.031,145.013 C186.202,144.161 187.849,143.734 189.973,143.734 L192.434,143.734 L192.434,142.572 C192.434,141.688 192.170,140.984 191.641,140.460 C191.112,139.936 190.333,139.674 189.303,139.674 C188.401,139.674 187.644,139.902 187.034,140.357 C186.423,140.813 186.118,141.365 186.118,142.012 L183.575,142.012 C183.575,141.273 183.837,140.560 184.361,139.872 C184.885,139.184 185.596,138.639 186.494,138.238 C187.391,137.837 188.378,137.637 189.454,137.637 C191.158,137.637 192.493,138.063 193.459,138.915 C194.425,139.767 194.927,140.941 194.963,142.436 L194.963,149.244 C194.963,150.602 195.136,151.682 195.483,152.484 L195.483,152.703 L192.831,152.703 C192.685,152.412 192.566,151.892 192.475,151.145 ZM192.434,145.525 L190.452,145.525 C187.353,145.525 185.803,146.432 185.803,148.246 C185.803,149.039 186.067,149.659 186.596,150.105 C187.125,150.552 187.804,150.775 188.633,150.775 C189.426,150.775 190.178,150.570 190.889,150.160 C191.600,149.750 192.115,149.217 192.434,148.561 L192.434,145.525 ZM177.122,131.703 L179.651,131.703 L179.651,152.703 L177.122,152.703 L177.122,131.703 ZM177.312,108.000 L61.312,108.000 C60.208,108.000 59.312,107.104 59.312,106.000 L59.312,18.000 C59.312,16.896 60.208,16.000 61.312,16.000 L177.312,16.000 C178.416,16.000 179.312,16.896 179.312,18.000 L179.312,106.000 C179.312,107.104 178.416,108.000 177.312,108.000 ZM175.312,20.000 L63.312,20.000 L63.312,104.000 L175.312,104.000 L175.312,20.000 ZM103.898,60.586 C104.679,59.805 105.945,59.805 106.726,60.586 L117.312,71.172 L139.898,48.586 C140.679,47.805 141.945,47.805 142.726,48.586 L170.726,76.586 C171.507,77.367 171.507,78.633 170.726,79.414 C170.335,79.805 169.824,80.000 169.312,80.000 C168.800,80.000 168.289,79.805 167.898,79.414 L141.312,52.828 L120.140,74.000 L130.726,84.586 C131.507,85.367 131.507,86.633 130.726,87.414 C129.945,88.195 128.679,88.195 127.898,87.414 L105.312,64.828 L70.726,99.414 C70.335,99.805 69.824,100.000 69.312,100.000 C68.800,100.000 68.289,99.805 67.898,99.414 C67.117,98.633 67.117,97.367 67.898,96.586 L103.898,60.586 ZM87.312,56.000 C80.695,56.000 75.312,50.617 75.312,44.000 C75.312,37.383 80.695,32.000 87.312,32.000 C93.929,32.000 99.312,37.383 99.312,44.000 C99.312,50.617 93.929,56.000 87.312,56.000 ZM87.312,36.000 C82.901,36.000 79.312,39.589 79.312,44.000 C79.312,48.411 82.901,52.000 87.312,52.000 C91.723,52.000 95.312,48.411 95.312,44.000 C95.312,39.589 91.723,36.000 87.312,36.000 ZM169.312,12.000 L69.312,12.000 C68.208,12.000 67.312,11.104 67.312,10.000 C67.312,8.896 68.208,8.000 69.312,8.000 L169.312,8.000 C170.416,8.000 171.312,8.896 171.312,10.000 C171.312,11.104 170.416,12.000 169.312,12.000 ZM161.312,4.000 L77.312,4.000 C76.208,4.000 75.312,3.104 75.312,2.000 C75.312,0.896 76.208,0.000 77.312,0.000 L161.312,0.000 C162.416,0.000 163.312,0.896 163.312,2.000 C163.312,3.104 162.416,4.000 161.312,4.000 ZM62.230,138.293 C63.018,137.855 63.950,137.637 65.026,137.637 C68.271,137.637 69.920,139.355 69.975,142.791 L69.975,152.703 L67.446,152.703 L67.446,142.941 C67.446,141.884 67.204,141.094 66.721,140.569 C66.238,140.045 65.427,139.783 64.288,139.783 C63.349,139.783 62.569,140.063 61.950,140.624 C61.330,141.185 60.970,141.939 60.870,142.887 L60.870,152.703 L58.327,152.703 L58.327,143.010 C58.327,140.859 57.274,139.783 55.168,139.783 C53.509,139.783 52.375,140.490 51.764,141.902 L51.764,152.703 L49.235,152.703 L49.235,137.910 L51.627,137.910 L51.696,139.551 C52.780,138.275 54.243,137.637 56.084,137.637 C58.153,137.637 59.562,138.430 60.309,140.016 C60.801,139.305 61.441,138.730 62.230,138.293 ZM43.958,135.422 C43.465,135.422 43.094,135.285 42.843,135.012 C42.592,134.738 42.467,134.396 42.467,133.986 C42.467,133.576 42.592,133.230 42.843,132.947 C43.094,132.665 43.465,132.523 43.958,132.523 C44.450,132.523 44.823,132.665 45.079,132.947 C45.334,133.230 45.461,133.576 45.461,133.986 C45.461,134.396 45.334,134.738 45.079,135.012 C44.823,135.285 44.450,135.422 43.958,135.422 ZM29.158,152.020 C28.132,152.658 26.954,152.977 25.624,152.977 C23.618,152.977 21.994,152.279 20.750,150.885 C19.505,149.490 18.883,147.645 18.883,145.348 L18.883,145.170 C18.883,143.721 19.168,142.417 19.738,141.260 C20.307,140.102 21.100,139.209 22.117,138.580 C23.133,137.951 24.293,137.637 25.596,137.637 C27.610,137.637 29.240,138.334 30.484,139.729 C31.728,141.123 32.350,142.978 32.350,145.293 L32.350,145.471 C32.350,146.911 32.074,148.203 31.523,149.347 C30.971,150.491 30.183,151.382 29.158,152.020 ZM28.666,141.226 C27.895,140.219 26.872,139.715 25.596,139.715 C24.347,139.715 23.340,140.212 22.575,141.205 C21.809,142.199 21.426,143.621 21.426,145.471 C21.426,147.111 21.807,148.429 22.568,149.422 C23.329,150.415 24.347,150.912 25.624,150.912 C26.909,150.912 27.929,150.409 28.686,149.401 C29.442,148.394 29.821,146.984 29.821,145.170 C29.821,143.548 29.436,142.233 28.666,141.226 ZM2.627,137.363 L2.627,152.703 L-0.011,152.703 L-0.011,132.797 L2.627,132.797 L12.676,148.205 L12.676,132.797 L15.288,132.797 L15.288,152.703 L12.649,152.703 L2.627,137.363 ZM45.202,152.703 L42.672,152.703 L42.672,137.910 L45.202,137.910 L45.202,152.703 ZM80.065,143.734 L82.526,143.734 L82.526,142.572 C82.526,141.688 82.261,140.984 81.733,140.460 C81.204,139.936 80.425,139.674 79.395,139.674 C78.493,139.674 77.736,139.902 77.125,140.357 C76.515,140.813 76.209,141.365 76.209,142.012 L73.666,142.012 C73.666,141.273 73.928,140.560 74.453,139.872 C74.977,139.184 75.688,138.639 76.585,138.238 C77.483,137.837 78.470,137.637 79.545,137.637 C81.250,137.637 82.585,138.063 83.551,138.915 C84.517,139.767 85.019,140.941 85.055,142.436 L85.055,149.244 C85.055,150.602 85.228,151.682 85.575,152.484 L85.575,152.703 L82.922,152.703 C82.776,152.412 82.658,151.892 82.567,151.145 C81.391,152.366 79.987,152.977 78.356,152.977 C76.898,152.977 75.701,152.564 74.767,151.739 C73.833,150.914 73.366,149.869 73.366,148.602 C73.366,147.061 73.951,145.865 75.123,145.013 C76.294,144.161 77.941,143.734 80.065,143.734 ZM76.688,150.105 C77.216,150.552 77.896,150.775 78.725,150.775 C79.518,150.775 80.270,150.570 80.981,150.160 C81.692,149.750 82.207,149.217 82.526,148.561 L82.526,145.525 L80.543,145.525 C77.444,145.525 75.895,146.432 75.895,148.246 C75.895,149.039 76.159,149.659 76.688,150.105 ZM94.229,152.977 C92.497,152.977 91.096,152.279 90.025,150.885 C88.954,149.490 88.418,147.590 88.418,145.184 C88.418,142.878 88.952,141.043 90.018,139.681 C91.084,138.318 92.497,137.637 94.256,137.637 C96.061,137.637 97.469,138.275 98.481,139.551 L98.604,137.910 L100.915,137.910 L100.915,152.348 C100.915,154.262 100.347,155.770 99.212,156.873 C98.078,157.976 96.553,158.527 94.639,158.527 C93.573,158.527 92.529,158.299 91.508,157.844 C90.487,157.388 89.708,156.764 89.170,155.971 L90.483,154.453 C91.567,155.793 92.894,156.463 94.461,156.463 C95.692,156.463 96.651,156.116 97.339,155.424 C98.027,154.731 98.372,153.756 98.372,152.498 L98.372,151.227 C97.360,152.393 95.979,152.977 94.229,152.977 ZM98.372,141.902 C97.597,140.490 96.435,139.783 94.885,139.783 C93.655,139.783 92.693,140.262 92.000,141.219 C91.308,142.176 90.961,143.593 90.961,145.471 C90.961,147.139 91.303,148.449 91.987,149.401 C92.670,150.354 93.627,150.830 94.858,150.830 C96.453,150.830 97.624,150.105 98.372,148.656 L98.372,141.902 ZM107.279,138.614 C108.286,137.963 109.377,137.637 110.553,137.637 C112.476,137.637 113.971,138.270 115.038,139.537 C116.104,140.804 116.637,142.618 116.637,144.979 L116.637,146.031 L106.616,146.031 C106.652,147.490 107.078,148.668 107.894,149.565 C108.710,150.463 109.747,150.912 111.004,150.912 C111.898,150.912 112.654,150.730 113.274,150.365 C113.894,150.001 114.436,149.518 114.901,148.916 L116.446,150.119 C115.206,152.024 113.347,152.977 110.868,152.977 C108.862,152.977 107.231,152.318 105.973,151.001 C104.715,149.684 104.086,147.923 104.086,145.717 L104.086,145.252 C104.086,143.785 104.367,142.474 104.927,141.321 C105.488,140.168 106.272,139.266 107.279,138.614 ZM114.108,143.953 L114.108,143.762 C114.035,142.477 113.689,141.481 113.069,140.774 C112.449,140.068 111.610,139.715 110.553,139.715 C109.532,139.715 108.675,140.086 107.983,140.829 C107.290,141.572 106.862,142.613 106.698,143.953 L114.108,143.953 ZM132.770,143.734 L135.231,143.734 L135.231,142.572 C135.231,141.688 134.966,140.984 134.438,140.460 C133.909,139.936 133.130,139.674 132.100,139.674 C131.198,139.674 130.441,139.902 129.831,140.357 C129.220,140.813 128.915,141.365 128.915,142.012 L126.372,142.012 C126.372,141.273 126.633,140.560 127.158,139.872 C127.682,139.184 128.393,138.639 129.291,138.238 C130.188,137.837 131.175,137.637 132.250,137.637 C133.955,137.637 135.290,138.063 136.256,138.915 C137.222,139.767 137.724,140.941 137.760,142.436 L137.760,149.244 C137.760,150.602 137.933,151.682 138.280,152.484 L138.280,152.703 L135.627,152.703 C135.482,152.412 135.363,151.892 135.272,151.145 C134.096,152.366 132.692,152.977 131.061,152.977 C129.603,152.977 128.406,152.564 127.472,151.739 C126.538,150.914 126.071,149.869 126.071,148.602 C126.071,147.061 126.656,145.865 127.828,145.013 C128.999,144.161 130.646,143.734 132.770,143.734 ZM129.393,150.105 C129.922,150.552 130.601,150.775 131.430,150.775 C132.223,150.775 132.975,150.570 133.686,150.160 C134.397,149.750 134.912,149.217 135.231,148.561 L135.231,145.525 L133.249,145.525 C130.149,145.525 128.600,146.432 128.600,148.246 C128.600,149.039 128.864,149.659 129.393,150.105 ZM146.401,149.271 L150.065,137.910 L152.649,137.910 L147.344,152.703 L145.416,152.703 L140.057,137.910 L142.641,137.910 L146.401,149.271 ZM161.153,143.734 L163.614,143.734 L163.614,142.572 C163.614,141.688 163.349,140.984 162.821,140.460 C162.292,139.936 161.513,139.674 160.483,139.674 C159.581,139.674 158.824,139.902 158.213,140.357 C157.603,140.813 157.297,141.365 157.297,142.012 L154.754,142.012 C154.754,141.273 155.016,140.560 155.541,139.872 C156.065,139.184 156.775,138.639 157.673,138.238 C158.571,137.837 159.558,137.637 160.633,137.637 C162.338,137.637 163.673,138.063 164.639,138.915 C165.605,139.767 166.107,140.941 166.143,142.436 L166.143,149.244 C166.143,150.602 166.316,151.682 166.663,152.484 L166.663,152.703 L164.010,152.703 C163.864,152.412 163.746,151.892 163.655,151.145 C162.479,152.366 161.075,152.977 159.444,152.977 C157.985,152.977 156.789,152.564 155.855,151.739 C154.921,150.914 154.454,149.869 154.454,148.602 C154.454,147.061 155.039,145.865 156.210,145.013 C157.382,144.161 159.029,143.734 161.153,143.734 ZM157.776,150.105 C158.304,150.552 158.983,150.775 159.813,150.775 C160.606,150.775 161.358,150.570 162.069,150.160 C162.780,149.750 163.295,149.217 163.614,148.561 L163.614,145.525 L161.631,145.525 C158.532,145.525 156.983,146.432 156.983,148.246 C156.983,149.039 157.247,149.659 157.776,150.105 ZM171.612,132.523 C172.104,132.523 172.478,132.665 172.733,132.947 C172.988,133.230 173.116,133.576 173.116,133.986 C173.116,134.396 172.988,134.738 172.733,135.012 C172.478,135.285 172.104,135.422 171.612,135.422 C171.120,135.422 170.748,135.285 170.498,135.012 C170.247,134.738 170.122,134.396 170.122,133.986 C170.122,133.576 170.247,133.230 170.498,132.947 C170.748,132.665 171.120,132.523 171.612,132.523 ZM172.856,152.703 L170.327,152.703 L170.327,137.910 L172.856,137.910 L172.856,152.703 Z" class="cls-1"/>
</svg>
