<svg xmlns="http://www.w3.org/2000/svg" xmlns:xlink="http://www.w3.org/1999/xlink" preserveAspectRatio="xMidYMid" width="35.72" height="35.719" viewBox="0 0 35.72 35.719">
  <defs>
    <style>
      .cls-1 {
        fill: #d8d8d8;
        fill-rule: evenodd;
      }
    </style>
  </defs>
  <path d="M34.963,31.057 L26.566,22.239 C27.999,19.991 28.834,17.323 28.834,14.459 C28.834,6.473 22.379,0.001 14.414,0.001 C6.449,0.001 -0.006,6.473 -0.006,14.459 C-0.006,22.442 6.449,28.916 14.414,28.916 C17.529,28.916 20.409,27.923 22.767,26.241 L30.981,34.868 C32.030,35.971 33.772,36.013 34.873,34.959 C35.971,33.907 36.012,32.160 34.963,31.057 ZM4.421,14.459 C4.421,8.924 8.894,4.439 14.414,4.439 C19.934,4.439 24.407,8.924 24.407,14.459 C24.407,19.991 19.934,24.478 14.414,24.478 C8.894,24.478 4.421,19.991 4.421,14.459 Z" class="cls-1"/>
</svg>
